<?xml version="1.0" encoding="UTF-8"?>
<svg width="700pt" height="700pt" version="1.1" viewBox="0 0 700 700" xmlns="http://www.w3.org/2000/svg" xmlns:xlink="http://www.w3.org/1999/xlink">
 <defs>
  <symbol id="m" overflow="visible">
   <path d="m29.312-1.75c-1.5117 0.78125-3.0898 1.3711-4.7344 1.7656-1.6367 0.40625-3.3398 0.60938-5.1094 0.60938-5.3125 0-9.5273-1.4844-12.641-4.4531-3.1055-2.9688-4.6562-7-4.6562-12.094s1.5508-9.125 4.6562-12.094c3.1133-2.9688 7.3281-4.4531 12.641-4.4531 1.7695 0 3.4727 0.19922 5.1094 0.59375 1.6445 0.39844 3.2227 0.99219 4.7344 1.7812v6.5938c-1.5312-1.0391-3.0391-1.8008-4.5156-2.2812-1.4805-0.48828-3.0391-0.73438-4.6719-0.73438-2.9375 0-5.2461 0.94531-6.9219 2.8281-1.6797 1.875-2.5156 4.4648-2.5156 7.7656 0 3.293 0.83594 5.8828 2.5156 7.7656 1.6758 1.875 3.9844 2.8125 6.9219 2.8125 1.6328 0 3.1914-0.23828 4.6719-0.71875 1.4766-0.48828 2.9844-1.2539 4.5156-2.2969z"/>
  </symbol>
  <symbol id="c" overflow="visible">
   <path d="m21.453-17.406c-0.67969-0.3125-1.3516-0.53906-2.0156-0.6875-0.65625-0.15625-1.3203-0.23438-1.9844-0.23438-1.9688 0-3.4844 0.63281-4.5469 1.8906-1.0547 1.2617-1.5781 3.0703-1.5781 5.4219v11.016h-7.6562v-23.922h7.6562v3.9219c0.97656-1.5625 2.1016-2.7031 3.375-3.4219 1.2812-0.71875 2.8125-1.0781 4.5938-1.0781 0.25 0 0.52344 0.011719 0.82812 0.03125 0.30078 0.023438 0.73438 0.070312 1.2969 0.14062z"/>
  </symbol>
  <symbol id="d" overflow="visible">
   <path d="m27.562-12.031v2.1875h-17.891c0.1875 1.793 0.83203 3.1367 1.9375 4.0312 1.1133 0.89844 2.6719 1.3438 4.6719 1.3438 1.6016 0 3.25-0.23438 4.9375-0.70312 1.6875-0.47656 3.4219-1.2031 5.2031-2.1719v5.8906c-1.8047 0.6875-3.6094 1.2031-5.4219 1.5469-1.8125 0.35156-3.6211 0.53125-5.4219 0.53125-4.3359 0-7.7031-1.0977-10.109-3.2969-2.3984-2.207-3.5938-5.2969-3.5938-9.2656 0-3.9062 1.1758-6.9727 3.5312-9.2031 2.3633-2.2383 5.6094-3.3594 9.7344-3.3594 3.7578 0 6.7695 1.1367 9.0312 3.4062 2.2578 2.2617 3.3906 5.2812 3.3906 9.0625zm-7.8594-2.5312c0-1.457-0.42969-2.6289-1.2812-3.5156-0.84375-0.89453-1.9492-1.3438-3.3125-1.3438-1.4922 0-2.6992 0.41797-3.625 1.25-0.91797 0.83594-1.4922 2.0391-1.7188 3.6094z"/>
  </symbol>
  <symbol id="b" overflow="visible">
   <path d="m14.391-10.766c-1.5938 0-2.793 0.27344-3.5938 0.8125-0.80469 0.54297-1.2031 1.3398-1.2031 2.3906 0 0.96875 0.32031 1.7305 0.96875 2.2812 0.64453 0.54297 1.5469 0.8125 2.7031 0.8125 1.4375 0 2.6445-0.51562 3.625-1.5469 0.98828-1.0312 1.4844-2.3203 1.4844-3.875v-0.875zm11.688-2.8906v13.656h-7.7031v-3.5469c-1.0312 1.4492-2.1875 2.5078-3.4688 3.1719s-2.8398 1-4.6719 1c-2.4805 0-4.4961-0.72266-6.0469-2.1719-1.543-1.4453-2.3125-3.3203-2.3125-5.625 0-2.8125 0.96094-4.8672 2.8906-6.1719 1.9375-1.3125 4.9688-1.9688 9.0938-1.9688h4.5156v-0.60938c0-1.207-0.48047-2.0938-1.4375-2.6562-0.94922-0.5625-2.4375-0.84375-4.4688-0.84375-1.6367 0-3.1562 0.16797-4.5625 0.5-1.4062 0.32422-2.7188 0.8125-3.9375 1.4688v-5.8281c1.6445-0.40625 3.2891-0.70703 4.9375-0.90625 1.6562-0.20703 3.3047-0.3125 4.9531-0.3125 4.3203 0 7.4375 0.85547 9.3438 2.5625 1.9141 1.6992 2.875 4.4609 2.875 8.2812z"/>
  </symbol>
  <symbol id="a" overflow="visible">
   <path d="m12.031-30.719v6.7969h7.875v5.4688h-7.875v10.141c0 1.1172 0.21875 1.8711 0.65625 2.2656 0.4375 0.38672 1.3125 0.57812 2.625 0.57812h3.9375v5.4688h-6.5625c-3.0234 0-5.1641-0.62891-6.4219-1.8906-1.2617-1.2578-1.8906-3.3984-1.8906-6.4219v-10.141h-3.7969v-5.4688h3.7969v-6.7969z"/>
  </symbol>
  <symbol id="i" overflow="visible">
   <path d="m19.953-20.422v-12.812h7.6875v33.234h-7.6875v-3.4531c-1.0547 1.4062-2.2148 2.4375-3.4844 3.0938-1.2734 0.65625-2.7422 0.98438-4.4062 0.98438-2.9492 0-5.3711-1.1719-7.2656-3.5156-1.8867-2.3438-2.8281-5.3594-2.8281-9.0469s0.94141-6.7031 2.8281-9.0469c1.8945-2.3438 4.3164-3.5156 7.2656-3.5156 1.6562 0 3.1172 0.33594 4.3906 1 1.2812 0.65625 2.4453 1.6836 3.5 3.0781zm-5.0469 15.484c1.6445 0 2.8945-0.59766 3.75-1.7969 0.86328-1.1953 1.2969-2.9297 1.2969-5.2031 0-2.2812-0.43359-4.0195-1.2969-5.2188-0.85547-1.1953-2.1055-1.7969-3.75-1.7969-1.625 0-2.8711 0.60156-3.7344 1.7969-0.85547 1.1992-1.2812 2.9375-1.2812 5.2188 0 2.2734 0.42578 4.0078 1.2812 5.2031 0.86328 1.1992 2.1094 1.7969 3.7344 1.7969z"/>
  </symbol>
  <symbol id="h" overflow="visible">
   <path d="m16.406-4.9375c1.6328 0 2.8828-0.59766 3.75-1.7969 0.86328-1.1953 1.2969-2.9297 1.2969-5.2031 0-2.2812-0.43359-4.0195-1.2969-5.2188-0.86719-1.1953-2.1172-1.7969-3.75-1.7969-1.6367 0-2.8906 0.60547-3.7656 1.8125-0.875 1.1992-1.3125 2.9336-1.3125 5.2031 0 2.2617 0.4375 3.9961 1.3125 5.2031 0.875 1.1992 2.1289 1.7969 3.7656 1.7969zm-5.0781-15.484c1.0508-1.3945 2.2188-2.4219 3.5-3.0781 1.2812-0.66406 2.7539-1 4.4219-1 2.9453 0 5.3672 1.1719 7.2656 3.5156 1.8945 2.3438 2.8438 5.3594 2.8438 9.0469s-0.94922 6.7031-2.8438 9.0469c-1.8984 2.3438-4.3203 3.5156-7.2656 3.5156-1.668 0-3.1406-0.33594-4.4219-1s-2.4492-1.6914-3.5-3.0781v3.4531h-7.6562v-33.234h7.6562z"/>
  </symbol>
  <symbol id="g" overflow="visible">
   <path d="m0.53125-23.922h7.6562l6.4219 16.234 5.4688-16.234h7.6562l-10.062 26.188c-1.0117 2.6641-2.1953 4.5234-3.5469 5.5781-1.3438 1.0625-3.1211 1.5938-5.3281 1.5938h-4.4219v-5.0156h2.3906c1.3008 0 2.2422-0.21094 2.8281-0.625 0.59375-0.40625 1.0547-1.1484 1.3906-2.2188l0.20312-0.65625z"/>
  </symbol>
  <symbol id="f" overflow="visible">
   <path d="m26.219-30.891v6.75c-1.7617-0.78125-3.4766-1.3672-5.1406-1.7656-1.668-0.40625-3.2422-0.60938-4.7188-0.60938-1.9609 0-3.4141 0.27344-4.3594 0.8125-0.9375 0.54297-1.4062 1.3867-1.4062 2.5312 0 0.85547 0.31641 1.5234 0.95312 2 0.63281 0.46875 1.7852 0.875 3.4531 1.2188l3.5 0.70312c3.5391 0.71875 6.0625 1.8047 7.5625 3.25 1.5 1.4492 2.25 3.5117 2.25 6.1875 0 3.5234-1.0469 6.1406-3.1406 7.8594-2.0859 1.7188-5.2734 2.5781-9.5625 2.5781-2.0234 0-4.0547-0.19531-6.0938-0.57812-2.0312-0.38281-4.0625-0.95703-6.0938-1.7188v-6.9375c2.0312 1.0859 3.9922 1.9023 5.8906 2.4531 1.9062 0.54297 3.7422 0.8125 5.5156 0.8125 1.7891 0 3.1602-0.29688 4.1094-0.89062 0.95703-0.60156 1.4375-1.457 1.4375-2.5625 0-1-0.32422-1.7695-0.96875-2.3125-0.64844-0.53906-1.9375-1.0234-3.875-1.4531l-3.1875-0.70312c-3.1875-0.6875-5.5234-1.7734-7-3.2656-1.4688-1.5-2.2031-3.5156-2.2031-6.0469 0-3.1758 1.0234-5.6172 3.0781-7.3281 2.0508-1.707 5-2.5625 8.8438-2.5625 1.75 0 3.5508 0.13281 5.4062 0.39062 1.8516 0.26172 3.7695 0.65625 5.75 1.1875z"/>
  </symbol>
  <symbol id="l" overflow="visible">
   <path d="m4.0156-31.891h8.2188v19.109c0 2.6367 0.42969 4.5234 1.2969 5.6562 0.86328 1.1367 2.2695 1.7031 4.2188 1.7031 1.9688 0 3.3789-0.56641 4.2344-1.7031 0.86328-1.1328 1.2969-3.0195 1.2969-5.6562v-19.109h8.2344v19.109c0 4.5234-1.1367 7.8867-3.4062 10.094-2.2617 2.2109-5.7148 3.3125-10.359 3.3125-4.625 0-8.0742-1.1016-10.344-3.3125-2.2617-2.207-3.3906-5.5703-3.3906-10.094z"/>
  </symbol>
  <symbol id="e" overflow="visible">
   <path d="m11.328-3.4531v12.547h-7.6562v-33.016h7.6562v3.5c1.0508-1.3945 2.2188-2.4219 3.5-3.0781 1.2812-0.66406 2.7539-1 4.4219-1 2.9453 0 5.3672 1.1719 7.2656 3.5156 1.8945 2.3438 2.8438 5.3594 2.8438 9.0469s-0.94922 6.7031-2.8438 9.0469c-1.8984 2.3438-4.3203 3.5156-7.2656 3.5156-1.668 0-3.1406-0.33594-4.4219-1s-2.4492-1.6914-3.5-3.0781zm5.0781-15.5c-1.6367 0-2.8906 0.60547-3.7656 1.8125-0.875 1.1992-1.3125 2.9336-1.3125 5.2031 0 2.2617 0.4375 3.9961 1.3125 5.2031 0.875 1.1992 2.1289 1.7969 3.7656 1.7969 1.6328 0 2.8828-0.59766 3.75-1.7969 0.86328-1.1953 1.2969-2.9297 1.2969-5.2031 0-2.2812-0.43359-4.0195-1.2969-5.2188-0.86719-1.1953-2.1172-1.7969-3.75-1.7969z"/>
  </symbol>
  <symbol id="k" overflow="visible">
   <path d="m32.688-2.375c-2.0547 1-4.1836 1.75-6.3906 2.25-2.2109 0.5-4.4844 0.75-6.8281 0.75-5.3125 0-9.5273-1.4844-12.641-4.4531-3.1055-2.9688-4.6562-7-4.6562-12.094 0-5.1328 1.5781-9.1758 4.7344-12.125 3.1641-2.9453 7.5-4.4219 13-4.4219 2.125 0 4.1562 0.19922 6.0938 0.59375 1.9453 0.39844 3.7852 0.99219 5.5156 1.7812v6.5938c-1.7812-1.0078-3.5547-1.7656-5.3125-2.2656-1.7617-0.5-3.5273-0.75-5.2969-0.75-3.2734 0-5.793 0.91797-7.5625 2.75-1.7734 1.8359-2.6562 4.4492-2.6562 7.8438 0 3.375 0.85156 5.9844 2.5625 7.8281 1.707 1.8359 4.1328 2.75 7.2812 2.75 0.85156 0 1.6445-0.050781 2.375-0.15625 0.73828-0.10156 1.3984-0.26953 1.9844-0.5v-6.2031h-5.0312v-5.5h12.828z"/>
  </symbol>
  <symbol id="j" overflow="visible">
   <path d="m27.734-14.562v14.562h-7.7031v-11.109c0-2.0938-0.046875-3.5312-0.14062-4.3125-0.085937-0.78125-0.24219-1.3594-0.46875-1.7344-0.30469-0.5-0.71094-0.88281-1.2188-1.1562-0.51172-0.28125-1.0938-0.42188-1.75-0.42188-1.5938 0-2.8516 0.61719-3.7656 1.8438-0.90625 1.2305-1.3594 2.9375-1.3594 5.125v11.766h-7.6562v-33.234h7.6562v12.812c1.1445-1.3945 2.3633-2.4219 3.6562-3.0781 1.3008-0.66406 2.7383-1 4.3125-1 2.7578 0 4.8516 0.85156 6.2812 2.5469 1.4375 1.6875 2.1562 4.1523 2.1562 7.3906z"/>
  </symbol>
 </defs>
 <g>
  <path d="m332.5 210c0 9.6641-7.8359 17.5-17.5 17.5s-17.5-7.8359-17.5-17.5 7.8359-17.5 17.5-17.5 17.5 7.8359 17.5 17.5"/>
  <path d="m367.5 166.18c-24.637-0.97266-47.355-13.559-61.25-33.922-14.57 21.34-38.777 34.074-64.617 33.992h-66.633v20.844l20.027 10.012v-0.003907c3.625-9.207 10.992-16.438 20.266-19.895 9.2695-3.457 19.574-2.8125 28.344 1.7734 8.7656 4.5859 15.172 12.684 17.621 22.27h19.984c2.4492-9.5859 8.8555-17.684 17.621-22.27 8.7695-4.5859 19.074-5.2305 28.344-1.7734 9.2734 3.457 16.641 10.688 20.266 19.895l20.027-10.008z"/>
  <path d="m245 210c0 9.6641-7.8359 17.5-17.5 17.5s-17.5-7.8359-17.5-17.5 7.8359-17.5 17.5-17.5 17.5 7.8359 17.5 17.5"/>
  <path d="m131.32 403.59c-0.3125-2.4922 0.46094-4.9961 2.1211-6.875 1.6602-1.8828 4.0508-2.9609 6.5586-2.9609h239.1c-1.7266-7.9453-2.6602-16.047-2.7812-24.176l-59.168-18.488c-12.398 10.535-28.125 16.352-44.398 16.414h-3.0117 0.003906c-16.273-0.0625-32-5.8789-44.398-16.414l-92.262 28.832c-10.695 3.3047-20.047 9.9609-26.68 18.98-6.6289 9.0195-10.191 19.934-10.156 31.129v51.223h44.773z"/>
  <path d="m155.42 183.96c0.69922-0.042969 1.3633-0.21094 2.082-0.21094v-26.25c0-4.832 3.918-8.75 8.75-8.75h75.383c12.168 0.039062 24.066-3.5898 34.141-10.41 10.078-6.8242 17.867-16.523 22.348-27.836 1.3242-3.3281 4.5469-5.5117 8.1289-5.5117s6.8047 2.1836 8.1289 5.5117c4.4805 11.312 12.27 21.012 22.348 27.836 10.074 6.8203 21.973 10.449 34.141 10.41h5.3828c2.3203 0 4.5469 0.92188 6.1875 2.5625s2.5625 3.8672 2.5625 6.1875v26.25c0.71875 0 1.3828 0.16797 2.082 0.21094l10.098-35.324c4.293-15.047 4.2227-31.004-0.20313-46.012-4.4297-15.004-13.031-28.445-24.805-38.75-27.688-24.254-63.238-37.621-100.05-37.625h-1.75c-36.809 0.003906-72.359 13.371-100.05 37.625-11.781 10.309-20.387 23.754-24.816 38.766-4.4258 15.016-4.4961 30.98-0.19141 46.031z"/>
  <path d="m385 201.25v17.5c-0.046875 5.8633-0.54297 11.715-1.4883 17.5h1.4883c6.2539 0 12.031-3.3359 15.156-8.75s3.125-12.086 0-17.5-8.9023-8.75-15.156-8.75z"/>
  <path d="m367.5 218.75v-12.094l-18.078 9.0391c-1.7148 10.633-8.2461 19.871-17.691 25.035-9.4492 5.1641-20.754 5.6719-30.629 1.3711-9.8711-4.2969-17.203-12.918-19.859-23.352h-19.984c-2.6562 10.434-9.9883 19.055-19.859 23.352-9.875 4.3008-21.18 3.793-30.629-1.3711-9.4453-5.1641-15.977-14.402-17.691-25.035l-18.078-9.0391v12.094c0 34.387 18.344 66.16 48.125 83.355 29.781 17.191 66.469 17.191 96.25 0 29.781-17.195 48.125-48.969 48.125-83.355zm-96.25 78.75c-9.2812 0-18.184-3.6875-24.75-10.25-6.5625-6.5664-10.25-15.469-10.25-24.75h17.5c0 6.2539 3.3359 12.031 8.75 15.156s12.086 3.125 17.5 0 8.75-8.9023 8.75-15.156h17.5c0 9.2812-3.6875 18.184-10.25 24.75-6.5664 6.5625-15.469 10.25-24.75 10.25z"/>
  <path d="m236.25 326.93v10.449c9.2891 8.0859 21.18 12.566 33.496 12.617h3.0117-0.003906c12.316-0.050781 24.207-4.5312 33.496-12.617v-10.449c-22.742 7.418-47.258 7.418-70 0z"/>
  <path d="m157.5 236.25h1.4883c-0.94531-5.7852-1.4414-11.637-1.4883-17.5v-17.5c-6.2539 0-12.031 3.3359-15.156 8.75s-3.125 12.086 0 17.5 8.9023 8.75 15.156 8.75z"/>
  <path d="m401.87 478.05-0.39453 3.2031h44.773v-3.1602c-4.1328-1.9453-8.1562-4.1172-12.047-6.5078z"/>
  <path d="m394.91 533.75h51.336v-35h-46.961z"/>
  <path d="m96.25 498.75v35h51.336l-4.375-35z"/>
  <path d="m498.75 262.5c-25.66-0.019531-50.438 9.3672-69.645 26.383-19.211 17.012-31.52 40.477-34.598 65.953-3.082 25.473 3.2812 51.191 17.879 72.297 1.8203 2.625 2.0625 6.0391 0.62891 8.8984l-12.188 24.379 33.406-6.6836v-0.003906c0.57812-0.10938 1.1641-0.16406 1.75-0.16797 1.7266 0.003906 3.4102 0.51172 4.8477 1.4609 27.691 18.359 62.438 22.527 93.684 11.242 31.246-11.289 55.309-36.695 64.883-68.508 9.5703-31.816 3.5195-66.281-16.316-92.934-19.832-26.652-51.109-42.348-84.332-42.316zm-37.562 133.81-12.371 12.371-35-35-0.003906 0.003906c-3.4141-3.418-3.4141-8.957 0-12.375l35-35 12.371 12.371-28.812 28.816zm37.391 16.625-17.152-3.4375 17.5-87.5 17.148 3.4297zm50.109-4.2773-12.371-12.371 28.812-28.789-28.812-28.812 12.371-12.371 35 35v-0.003906c3.4141 3.418 3.4141 8.957 0 12.375z"/>
  <path d="m377.12 468.59 17.938-35.875c-4.2539-6.7891-7.832-13.977-10.684-21.465h-234.46l15.312 122.5h212.05l6.5781-52.613h0.003907c-2.8086-0.35156-5.2695-2.0469-6.5977-4.5391-1.3281-2.4961-1.3633-5.4844-0.089843-8.0078zm-105.88 30.16c-6.9609 0-13.641-2.7656-18.562-7.6875s-7.6875-11.602-7.6875-18.562 2.7656-13.641 7.6875-18.562 11.602-7.6875 18.562-7.6875 13.641 2.7656 18.562 7.6875 7.6875 11.602 7.6875 18.562-2.7656 13.641-7.6875 18.562-11.602 7.6875-18.562 7.6875z"/>
  <use x="70" y="691.25" xlink:href="#m"/>
  <use x="102.109375" y="691.25" xlink:href="#c"/>
  <use x="123.683594" y="691.25" xlink:href="#d"/>
  <use x="153.355469" y="691.25" xlink:href="#b"/>
  <use x="182.878906" y="691.25" xlink:href="#a"/>
  <use x="203.792969" y="691.25" xlink:href="#d"/>
  <use x="233.464844" y="691.25" xlink:href="#i"/>
  <use x="280.011719" y="691.25" xlink:href="#h"/>
  <use x="311.328125" y="691.25" xlink:href="#g"/>
  <use x="355.078125" y="691.25" xlink:href="#f"/>
  <use x="386.589844" y="691.25" xlink:href="#a"/>
  <use x="407.503906" y="691.25" xlink:href="#b"/>
  <use x="437.027344" y="691.25" xlink:href="#c"/>
  <use x="458.601562" y="691.25" xlink:href="#a"/>
  <use x="494.746094" y="691.25" xlink:href="#l"/>
  <use x="530.273438" y="691.25" xlink:href="#e"/>
  <use x="576.820312" y="691.25" xlink:href="#k"/>
  <use x="612.730469" y="691.25" xlink:href="#c"/>
  <use x="634.304688" y="691.25" xlink:href="#b"/>
  <use x="663.828125" y="691.25" xlink:href="#e"/>
  <use x="695.148438" y="691.25" xlink:href="#j"/>
 </g>
</svg>
